<?xml version="1.0" standalone="no"?>
<!DOCTYPE svg PUBLIC "-//W3C//DTD SVG 20010904//EN"
 "http://www.w3.org/TR/2001/REC-SVG-20010904/DTD/svg10.dtd">
<svg version="1.0" xmlns="http://www.w3.org/2000/svg"
 width="700.000000pt" height="700.000000pt" viewBox="0 0 700.000000 700.000000"
 preserveAspectRatio="xMidYMid meet">
<metadata>
Created by potrace 1.14, written by Peter Selinger 2001-2017
</metadata>
<g transform="translate(0.000000,700.000000) scale(0.100000,-0.100000)"
fill="#000000" stroke="none">
<path d="M5015 6514 c-99 -20 -108 -23 -175 -50 -94 -38 -139 -62 -368 -196
-788 -460 -1302 -812 -1732 -1186 -187 -163 -438 -414 -585 -587 -33 -38 -66
-76 -73 -83 -7 -8 -25 -30 -40 -50 -15 -20 -36 -47 -47 -60 -59 -69 -190 -270
-234 -357 -126 -256 -140 -485 -39 -654 80 -134 233 -244 368 -264 19 -3 56
-9 82 -12 l48 -7 -58 -60 c-31 -34 -73 -77 -92 -98 -48 -51 -211 -228 -233
-254 -28 -32 -137 -154 -183 -206 -60 -67 -274 -319 -314 -370 -19 -25 -67
-77 -107 -116 -40 -39 -73 -77 -73 -86 0 -12 -83 -131 -110 -158 -15 -15 -93
-116 -224 -290 -80 -107 -149 -199 -154 -205 -53 -68 -403 -570 -450 -647 -82
-132 9 -293 163 -292 88 1 120 27 232 192 119 176 310 444 433 610 l91 122
162 1 c89 0 191 2 227 4 105 4 322 16 360 20 19 2 78 6 130 10 52 4 101 8 110
10 13 2 74 9 175 21 76 8 132 15 145 19 8 2 40 7 70 10 84 10 371 62 500 91
63 14 125 28 138 30 13 3 69 16 125 30 56 14 120 30 142 35 155 38 609 182
810 257 452 169 939 396 1065 497 136 109 199 267 165 410 -36 149 -141 259
-319 329 -84 34 -266 76 -396 92 -19 2 -44 6 -55 8 -111 25 -714 25 -788 1 -6
-2 -39 -6 -71 -9 -63 -6 -151 -20 -226 -36 -25 -5 -61 -12 -80 -15 -145 -24
-506 -134 -750 -230 -148 -58 -411 -174 -485 -213 -23 -12 126 146 408 433
l177 182 233 77 c366 121 634 226 1027 401 104 46 616 300 635 314 6 5 35 22
66 39 246 132 563 327 834 510 144 98 453 320 520 374 11 9 79 63 150 120 383
306 465 398 500 562 26 125 3 256 -62 344 -99 133 -266 177 -488 128 -136 -30
-435 -142 -642 -241 -73 -35 -133 -60 -133 -55 0 5 4 11 9 14 17 11 78 131
100 198 54 162 7 355 -113 462 -66 58 -179 116 -258 132 -58 12 -181 11 -243
-2z m199 -386 c37 -19 56 -40 56 -63 0 -25 -42 -112 -67 -141 -10 -10 -43 -51
-74 -89 -31 -39 -66 -81 -79 -95 -50 -57 -167 -185 -197 -216 l-33 -34 -51 39
c-81 61 -148 83 -259 87 -52 2 -115 -2 -140 -7 -25 -6 -54 -12 -64 -15 -59
-12 -327 -117 -444 -174 -47 -23 -99 -44 -92 -37 61 60 956 600 1166 703 116
58 218 73 278 42z m1258 -504 c-10 -51 -67 -108 -307 -303 -509 -413 -958
-714 -1568 -1050 -130 -72 -477 -243 -687 -338 -19 -9 -39 -19 -45 -21 -15 -8
4 10 60 54 28 21 52 41 55 44 3 3 46 39 95 79 101 84 429 410 490 488 84 106
684 531 1000 708 288 161 560 279 774 335 117 31 138 32 133 4z m-1964 -390
c12 -4 22 -12 22 -19 0 -11 -48 -59 -146 -144 -21 -19 -57 -51 -79 -70 -22
-20 -60 -52 -84 -71 -24 -19 -96 -77 -160 -128 -124 -99 -393 -293 -526 -379
-296 -192 -708 -414 -1005 -543 -41 -18 -97 -43 -125 -55 -66 -30 -146 -57
-152 -51 -19 19 256 295 487 487 196 164 450 351 605 446 428 262 927 496
1135 532 3 0 15 -2 28 -5z m6 -2579 c79 -5 174 -17 321 -41 61 -9 186 -51 225
-75 l35 -22 -37 -31 c-47 -41 -343 -188 -547 -273 -46 -19 -91 -38 -100 -43
-154 -77 -816 -303 -1038 -355 -10 -2 -61 -16 -113 -29 -117 -31 -97 -26 -380
-85 -129 -27 -262 -52 -295 -56 -32 -3 -62 -8 -65 -10 -4 -2 -29 -7 -56 -10
-59 -8 -100 -14 -134 -20 -14 -2 -50 -7 -80 -10 -30 -3 -73 -7 -95 -10 -91
-11 -124 -14 -200 -21 -44 -4 -93 -8 -110 -9 -16 -2 -91 -6 -165 -10 -74 -4
-156 -8 -182 -10 -58 -3 -60 6 -10 62 96 107 886 551 1288 723 222 96 588 220
716 244 13 2 59 12 103 21 44 9 87 18 96 20 102 21 272 42 404 51 55 3 101 7
102 8 4 4 229 -2 317 -9z"/>
</g>
</svg>
